<?xml version="1.0" encoding="UTF-8" standalone="no"?>
<!-- Created with Inkscape (http://www.inkscape.org/) -->

<svg
   xmlns:dc="http://purl.org/dc/elements/1.1/"
   xmlns:cc="http://creativecommons.org/ns#"
   xmlns:rdf="http://www.w3.org/1999/02/22-rdf-syntax-ns#"
   xmlns:svg="http://www.w3.org/2000/svg"
   xmlns="http://www.w3.org/2000/svg"
   xmlns:sodipodi="http://sodipodi.sourceforge.net/DTD/sodipodi-0.dtd"
   xmlns:inkscape="http://www.inkscape.org/namespaces/inkscape"
   width="210mm"
   height="297mm"
   id="svg3781"
   version="1.1"
   inkscape:version="0.48.2 r9819"
   sodipodi:docname="Documento nuevo 3">
  <defs
     id="defs3783" />
  <sodipodi:namedview
     id="base"
     pagecolor="#ffffff"
     bordercolor="#666666"
     borderopacity="1.0"
     inkscape:pageopacity="0.0"
     inkscape:pageshadow="2"
     inkscape:zoom="0.8"
     inkscape:cx="351.75736"
     inkscape:cy="567.4487"
     inkscape:document-units="px"
     inkscape:current-layer="layer1"
     showgrid="false"
     inkscape:window-width="1360"
     inkscape:window-height="712"
     inkscape:window-x="-4"
     inkscape:window-y="-4"
     inkscape:window-maximized="1" />
  <metadata
     id="metadata3786">
    <rdf:RDF>
      <cc:Work
         rdf:about="">
        <dc:format>image/svg+xml</dc:format>
        <dc:type
           rdf:resource="http://purl.org/dc/dcmitype/StillImage" />
        <dc:title></dc:title>
      </cc:Work>
    </rdf:RDF>
  </metadata>
  <g
     inkscape:label="Capa 1"
     inkscape:groupmode="layer"
     id="layer1">
    <path
       style="fill:#aa4400"
       d="m 366.5081,276.53125 c -3.19186,0.0151 -6.42988,0.27715 -9.66599,0.79489 -39.1985,6.27116 -66.52337,47.82776 -61.0577,92.80304 0.0103,0.085 0.0147,0.1706 0.0253,0.25549 C 264.98318,391.58202 245,425.67489 245,464.09617 c 0,7.9759 0.86387,15.75395 2.50506,23.27883 l 244.98988,0 C 494.13613,479.85012 495,472.07207 495,464.09617 c 0,-40.88611 -22.63928,-76.83895 -56.88259,-97.60076 0.50746,-6.22664 0.38055,-12.61443 -0.40485,-19.07728 l -2.7328,-13.74019 C 425.33585,299.1687 397.36281,276.3851 366.5081,276.53125 z"
       id="path3815"
       inkscape:connector-curvature="0" />
  </g>
</svg>
